<?xml version="1.0" encoding="utf-8"?>
<!-- Generator: Adobe Illustrator 23.0.3, SVG Export Plug-In . SVG Version: 6.00 Build 0)  -->
<svg version="1.1" id="Layer_1" xmlns="http://www.w3.org/2000/svg" xmlns:xlink="http://www.w3.org/1999/xlink" x="0px" y="0px"
	 viewBox="0 0 447.25 156.8" style="enable-background:new 0 0 447.25 156.8;" xml:space="preserve">
<style type="text/css">
	.st0{fill:#0076FF;}
</style>
<g>
	<path class="st0" d="M208.99,43.87c1.2,0.18,2.05,0.37,2.92,0.43c7.64,0.5,15.01-0.99,22.32-3.03c10.48-2.92,20.96-5.82,31.47-8.64
		c4.25-1.14,8.52-2.3,13.01-2.18c2.65,0.07,5.14,0.74,7.46,1.91c3.86,1.94,5.27,5.05,4.33,9.32c-0.94,4.26-3.07,7.92-5.71,11.34
		c-1.44,1.87-2.79,3.84-3.92,5.9c-0.67,1.22-1.05,2.71-1.16,4.1c-0.2,2.71,1.24,4.36,3.92,5.08c3.16,0.85,6.39,0.81,9.56,0.39
		c5.29-0.72,10.43-2.17,15.43-4.03c4.71-1.75,9.35-3.67,14.01-5.53c8.21-3.27,16.4-6.59,24.63-9.81c3.13-1.22,6.37-2.24,9.78-2.03
		c1.79,0.11,3.68,0.41,5.31,1.12c4.26,1.86,6.56,6.45,4.58,11.46c-1.73,4.38-5.92,8.22-10.73,9.88c-0.2-0.98,0.59-1.51,0.93-2.19
		c0.74-1.49,1.57-2.93,2.27-4.44c0.69-1.5,0-2.65-1.13-3.61c-1.64-1.39-3.52-1.62-5.59-1.26c-3.41,0.59-6.55,1.94-9.68,3.32
		c-7.61,3.34-15.16,6.81-22.8,10.08c-7.34,3.14-14.58,6.58-22.36,8.61c-4.45,1.16-8.93,2.07-13.54,1.69
		c-3.43-0.28-6.8-1.02-9.59-3.29c-1.99-1.61-3.08-3.65-3.23-6.29c-0.26-4.62,1.01-8.72,3.65-12.47c2.29-3.25,4.5-6.54,6.77-9.8
		c1.01-1.45,1.24-3.08,1.2-4.8c-0.04-1.5-0.75-2.57-2.18-2.83c-1.63-0.29-3.4-0.66-4.96-0.31c-7.64,1.73-15.28,3.5-22.82,5.61
		c-12.16,3.41-24.27,6.98-36.61,9.66c-3.68,0.8-7.44,0.82-11.17,0.58c-2.76-0.18-4.07-1.54-4.53-4.3c-0.37-2.21-0.19-4.4,0.43-6.54
		c1.75-6.04,5.32-10.88,9.77-15.22c3.61-3.52,7.79-6.12,12.31-8.24c3.14-1.47,6.49-2.13,9.87-2.68c0.6-0.1,1.22-0.1,1.83-0.05
		c1.21,0.09,1.65,0.51,1.27,1.59c-1.07,3-2.26,5.97-3.53,8.89c-0.21,0.47-1.05,0.77-1.66,0.94c-2.64,0.73-5.37,1.18-7.93,2.1
		C217.87,36.21,213.19,39.17,208.99,43.87z"/>
	<path class="st0" d="M158.05,63.7c-0.24,0.77-0.44,1.46-0.67,2.14c-1.62,4.79-3.8,9.19-8.32,11.95c-2.51,1.53-5.2,2.43-8.17,2.63
		c-4.02,0.27-7.76,1.52-11.2,3.64c-0.5,0.31-1.03,0.58-1.58,0.89c-0.9-1.55-0.56-3.02-0.36-4.54c0.87-6.59,4.41-10.38,10.94-11.81
		c2.97-0.65,5.92-1.42,8.81-2.36c4.99-1.62,8.85-4.75,11.44-9.34c1.35-2.39,2.54-4.87,3.85-7.28c0.42-0.78,1-1.47,1.53-2.24
		c1.15,0.69,1.23,1.61,1.16,2.51c-0.16,2.05-0.44,4.1-0.57,6.15c-0.14,2.09,0.23,4.13,1.27,5.96c1.52,2.69,4.58,3.74,7.76,2.68
		c3.17-1.05,5.74-2.88,7.12-6.03c1.31-3,2.5-6.06,3.82-9.05c0.47-1.07,0.75-2.35,2.11-2.89c1.04,0.98,0.7,2.08,0.53,3.21
		c-0.49,3.26-0.7,6.5,0.59,9.67c0.9,2.21,2.34,3.96,4.32,5.21c3.33,2.1,6.98,3.27,10.9,3.83c8.58,1.24,16.9-0.02,25.02-2.64
		c7.31-2.36,14.52-5.07,21.76-7.65c5.59-2,11.15-4.08,16.76-6.04c1.54-0.54,3.18-0.79,4.86-1.2c0.19,1.45-0.85,1.62-1.47,2
		c-3.21,1.93-6.45,3.79-9.69,5.65c-6.75,3.87-13.45,7.84-20.28,11.57c-7.43,4.05-15.07,7.72-23.36,9.7
		c-2.13,0.51-4.35,0.7-6.54,0.88c-4.74,0.39-9.43,0.17-13.98-1.45c-5.15-1.83-9.37-4.81-11.9-9.78c-0.71-1.4-1.05-3-1.57-4.51
		c-0.16-0.46-0.36-0.91-0.71-1.79c-0.53,1.91-0.92,3.34-1.33,4.77c-0.7,2.45-1.91,4.65-3.46,6.65c-3.98,5.13-11.5,5.01-15.33-0.22
		c-2.09-2.84-3.21-6.03-3.49-9.53c-0.03-0.37-0.11-0.74-0.18-1.11C158.42,63.93,158.33,63.9,158.05,63.7z"/>
	<path class="st0" d="M87.02,65.79c-0.69,0.42-1.4,0.81-2.08,1.26c-4.2,2.78-8.92,3.83-13.84,4.18c-5.85,0.41-11.37-0.89-16.63-3.37
		c-4.07-1.92-8.1-3.92-12.19-5.79c-2.8-1.28-5.78-1.85-8.88-1.91c-3.65-0.07-6.69,1.38-9.35,3.71c-2.48,2.18-4.42,4.84-6.18,7.63
		c-0.71,1.13-1.3,2.38-2.86,3.22c0-0.67-0.09-1.09,0.01-1.46c1.46-5.1,4.33-9.41,7.76-13.35c1.7-1.95,3.57-3.8,5.58-5.43
		c6.95-5.63,14.55-6.1,22.53-2.45c3.05,1.39,6.06,2.88,9.08,4.35c4.32,2.1,8.86,2.95,13.68,3.18c8.78,0.41,16.08-2.81,22.71-8.13
		c2.38-1.91,4.74-3.86,7.16-5.72c0.73-0.56,1.64-0.87,2.47-1.3c0.14,0.16,0.28,0.32,0.42,0.48c-0.45,0.73-0.83,1.52-1.36,2.17
		c-3.04,3.74-6.19,7.38-9.15,11.18c-2.86,3.66-5.81,7.31-7.03,11.95c-0.32,1.24-0.74,2.56-0.62,3.79c0.31,3.2,3.18,4.92,6.6,4.18
		c2.21-0.48,4.24-1.41,5.84-2.98c3.76-3.69,7.46-7.44,11.1-11.26c4.85-5.1,9.53-10.38,15.33-14.45c3.15-2.21,6.57-3.86,10.58-3.78
		c3.52,0.06,5.12,1.27,6.12,4.67c1.43,4.87-1.56,11.05-6.24,12.89c-0.2,0.08-0.44,0.05-0.89,0.09c0.18-0.58,0.26-1.07,0.48-1.49
		c0.99-1.93,0.67-3.82-0.62-5.35c-1.23-1.46-3.1-1.61-4.88-1.19c-2.96,0.69-5.48,2.26-7.74,4.26c-5.07,4.49-9.3,9.71-13.16,15.23
		c-2.86,4.09-6.08,7.85-9.68,11.3c-2.43,2.34-5.4,3.53-8.61,3.88c-3.45,0.38-7.9-1.74-9.83-6.79c-1.76-4.59-0.41-8.69,1.77-12.67
		c0.83-1.51,1.87-2.92,2.81-4.37C87.17,66.02,87.09,65.9,87.02,65.79z"/>
	<path class="st0" d="M399.94,18.93c0.55,4.2,1.73,7.94,3.81,11.39c0.9,1.5,1.63,3.11,2.44,4.66c2.97,5.67,4.48,11.71,3.9,18.09
		c-0.88,9.65-5.62,16.78-14.58,20.85c-3.42,1.55-7.12,2.14-10.78,2.86c-2.98,0.58-6.05,0.94-8.67,2.67
		c-1.01,0.67-1.96,1.43-3.11,2.27c-0.45-1.7-0.42-3.31-0.04-4.92c1.36-5.68,4.91-9.22,10.57-10.51c3.33-0.76,6.74-1.2,10.11-1.8
		c0.97-0.17,1.96-0.31,2.91-0.58c6.17-1.8,7.73-5.58,6.74-11.34c-0.8-4.68-3.36-8.63-5.48-12.76c-0.98-1.9-2.03-3.77-2.84-5.74
		C392.5,28.14,394.46,22.66,399.94,18.93z"/>
	<path class="st0" d="M421.91,18.65c0.08,0.36,0.17,0.58,0.16,0.8c-0.36,6.44,1.35,12.53,3.14,18.61
		c1.64,5.54,3.41,11.05,4.86,16.64c1.55,5.96,0.61,11.8-1.56,17.47c-0.62,1.63-1.04,2.08-2.3,3.05c-0.09-0.2-0.26-0.39-0.25-0.58
		c0.16-5.36-1.39-10.39-3.1-15.37c-2.21-6.41-4.65-12.74-6.77-19.17c-1.13-3.45-2.35-6.92-2.18-10.68
		C414.11,25.15,417.58,20.25,421.91,18.65z"/>
	<path class="st0" d="M234.89,115.09c1.42,0,2.48,0,3.9,0c0.04,9.16,0.04,18.3,0.01,27.61c-0.79,0.07-1.45,0.14-2.11,0.17
		c-0.61,0.03-1.22,0.01-2.09,0.01c-2.18-6.23-3.78-12.67-5.82-18.95c-0.16,0.02-0.32,0.05-0.48,0.07c0.12,3.06,0.29,6.12,0.35,9.18
		c0.06,3.12,0.01,6.25,0.01,9.53c-1.35,0-2.51,0-3.79,0c0-9.19,0-18.27,0-27.52c1.47,0,2.88,0,4.64,0c1.78,6.04,3.59,12.2,5.4,18.36
		C235.66,127.48,234.72,121.4,234.89,115.09z"/>
	<path class="st0" d="M387.45,62.74c0.2-5.3-3.09-8.92-5.96-12.75c-1.74-2.32-3.51-4.63-4.98-7.11c-1.79-3.03-2.08-6.37-0.85-9.7
		c0.9-2.42,2.03-4.75,4.11-6.77c0.19,0.52,0.41,0.84,0.41,1.16c0.03,3.47,1.73,6.25,3.61,8.97c2.43,3.51,4.99,6.96,7.16,10.63
		c2.31,3.92,2.57,8.09,0.18,12.18C390.24,60.87,389.06,61.95,387.45,62.74z"/>
	<path class="st0" d="M67.26,94.43c-2.3-1.38-4.31-2.58-6.35-3.8c-1.27,0.82-1.66,2.18-2.35,3.34c-1.47,2.47-1.62,2.5-3.98,0.94
		c-1.9-1.25-3.83-2.47-5.97-3.85c1.79-3.94,3.74-7.74,5.94-11.68c2.43,1.38,4.65,2.64,7.11,4.03c1.35-2.16,2.61-4.19,4.01-6.43
		c2.64,1.49,5.18,2.92,7.92,4.47C71.45,85.84,69.4,90.04,67.26,94.43z"/>
	<path class="st0" d="M33.7,38.78c-1.11-0.76-2.04-1.39-2.97-2.02c-0.5-0.34-0.99-0.72-1.53-1c-1.5-0.78-2.15-0.62-3.04,0.81
		c-0.88,1.41-1.67,2.87-2.65,4.56c-2.81-1.66-5.48-3.22-8.34-4.91c1.99-3.97,3.92-7.81,5.97-11.88c1.34,0.68,2.41,1.18,3.45,1.75
		c0.8,0.44,1.52,1.02,2.32,1.47c0.93,0.52,1.75,0.41,2.31-0.62c0.58-1.07,1.19-2.13,1.79-3.19c0.81-1.43,1.1-1.6,2.5-0.92
		c2.24,1.1,4.43,2.33,6.78,3.57C38.08,30.65,36.23,34.79,33.7,38.78z"/>
	<path class="st0" d="M244.57,115.08c2.41,0,4.71-0.22,6.94,0.05c3.15,0.38,5.38,2.94,6.05,6.6c0.91,4.92,0.76,9.87-0.06,14.77
		c-0.6,3.56-3.39,5.97-7.14,6.3c-1.88,0.17-3.78,0.03-5.79,0.03C244.57,133.51,244.57,124.39,244.57,115.08z M248.55,118.78
		c0,6.91,0,13.67,0,20.41c2.74,0.33,4.68-0.94,5.08-3.48c0.72-4.61,0.83-9.26-0.08-13.86C253.02,119.24,251.49,118.33,248.55,118.78
		z"/>
	<path class="st0" d="M266.38,130.8c0,4.15,0,7.95,0,11.89c-1.42,0-2.59,0-3.87,0c0-9.15,0-18.21,0-27.56
		c3.07-0.07,6.15-0.5,9.16,0.62c1.46,0.54,2.55,1.54,2.8,3.07c0.32,1.94,0.57,3.93,0.52,5.89c-0.06,2.17-1.13,3.48-3.87,5.58
		c1.48,4.03,3,8.14,4.57,12.42c-1.38,0-2.7,0-4.25,0c-1-2.98-2.03-6.05-3.06-9.13c-0.22-0.65-0.33-1.34-0.65-1.94
		C267.58,131.33,267.08,131.21,266.38,130.8z M266.34,118.8c0,1.63-0.01,3.14,0,4.66c0.01,1.48,0.05,2.97,0.07,4.44
		c3.25,0,4.43-1.05,4.69-3.95c0.05-0.53,0.02-1.07,0.02-1.6C271.12,119.15,269.98,118.22,266.34,118.8z"/>
	<path class="st0" d="M159.59,142.77c-1.42,0-2.63,0-3.98,0c-0.43-1.59-0.85-3.17-1.33-4.96c-1.52,0-2.95,0.02-4.39-0.01
		c-1.03-0.02-1.5,0.47-1.63,1.49c-0.14,1.11-0.42,2.21-0.67,3.45c-1.29,0-2.55,0-3.93,0c2.04-9.23,4.06-18.38,6.1-27.6
		c1.32,0,2.44,0,3.81,0C155.58,124.32,157.57,133.48,159.59,142.77z M153.59,134.29c-0.14-4.21-1.1-7.88-2.31-11.53
		c-0.68,3.81-1.35,7.62-2.04,11.53C150.66,134.29,151.97,134.29,153.59,134.29z"/>
	<path class="st0" d="M221.88,142.79c-1.52,0-2.65,0-3.98,0c-0.39-1.55-0.78-3.07-1.21-4.79c-1.81,0-3.66,0-5.66,0
		c-0.25,1.11-0.61,2.2-0.7,3.31c-0.11,1.18-0.64,1.62-1.76,1.57c-0.75-0.03-1.51-0.01-2.55-0.01c2.04-9.33,4.04-18.46,6.06-27.71
		c1.18,0,2.29,0,3.65,0C217.75,124.25,219.79,133.4,221.88,142.79z M216.13,134.4c-0.45-4.01-1.27-7.65-2.48-11.27
		c-0.68,3.71-1.35,7.42-2.06,11.27C213.21,134.4,214.51,134.4,216.13,134.4z"/>
	<path class="st0" d="M291.84,115.09c1.4,0,2.46,0,3.78,0c1.96,9.18,3.92,18.35,5.9,27.65c-1.34,0-2.6,0-3.96,0
		c-0.25-1.2-0.58-2.29-0.69-3.41c-0.12-1.2-0.75-1.55-1.82-1.53c-1.3,0.02-2.59,0.01-4.12,0.01c-0.44,1.62-0.87,3.2-1.33,4.91
		c-1.18,0-2.36,0-3.58,0C287.97,133.47,289.89,124.35,291.84,115.09z M293.99,123.13c-0.16-0.01-0.31-0.02-0.47-0.04
		c-0.54,3.74-1.67,7.4-1.91,11.25c1.58,0,2.85,0,4.32,0C295.27,130.52,294.63,126.83,293.99,123.13z"/>
	<path class="st0" d="M204.03,142.76c-1.65,0-2.85,0-4.23,0c-0.93-2.91-1.87-5.84-2.81-8.77c-0.13-0.02-0.26-0.03-0.39-0.05
		c-1.01,2.92-2.01,5.83-3.04,8.81c-1.28,0-2.48,0-3.94,0c0.28-0.9,0.5-1.74,0.81-2.55c1.17-3.06,2.35-6.11,3.58-9.14
		c0.49-1.2,0.5-2.31,0.05-3.54c-1.46-3.99-2.83-8.02-4.32-12.28c1.4,0,2.63,0,4.18,0c0.89,2.76,1.85,5.69,2.95,9.1
		c1.56-3.15,2.02-6.29,3.38-9.2c1.24,0,2.52,0,4,0c-0.98,2.64-1.92,5.18-2.87,7.72c-0.51,1.35-0.97,2.73-1.58,4.04
		c-0.69,1.51-0.52,2.91,0.05,4.41C201.25,135,202.56,138.72,204.03,142.76z"/>
	<path class="st0" d="M176.17,115.14c3.52,0,6.93,0,10.54,0c0,1.05,0,2.05,0,3.3c-2.13,0-4.24,0-6.56,0
		c-0.35,2.84-0.16,5.45-0.14,8.24c1.87,0,3.5,0,5.32,0c0,1.16,0,2.26,0,3.69c-1.69,0-3.4,0-5.23,0c0,3.11,0,5.89,0,8.95
		c2.35,0,4.6,0,6.97,0c0,1.23,0,2.18,0,3.33c-3.57,0-7.17,0-10.91,0C176.17,133.51,176.17,124.39,176.17,115.14z"/>
	<path class="st0" d="M162.44,115.15c1.3,0,2.41,0,3.79,0c0,8.05,0,15.97,0,24.23c2.34,0,4.43,0,6.68,0c0,1.28,0,2.23,0,3.34
		c-3.46,0-6.87,0-10.46,0C162.44,133.58,162.44,124.45,162.44,115.15z"/>
	<path class="st0" d="M181.87,19.51c2.84,1.53,5.51,2.96,8.36,4.5c-1.57,4.55-4.04,8.47-6.31,12.87c-2.69-1.74-5.25-3.39-7.95-5.14
		C177.97,27.59,179.88,23.63,181.87,19.51z"/>
	<path class="st0" d="M381.24,94.83c1.27-0.83,2.27-1.49,3.58-2.35c-0.71-0.51-1.2-0.92-1.74-1.25c-2.95-1.8-3.51-4.29-1.33-6.89
		c2.23-2.65,5.18-3.79,9.14-3.6c-1.28,1.07-2.24,1.88-3.6,3.01c1.35,0.58,2.11,0.95,2.91,1.25c2.68,0.99,3.47,2.81,2.3,5.37
		c-1.57,3.43-6.72,5.99-10.38,5.12C381.87,95.44,381.66,95.16,381.24,94.83z"/>
	<path class="st0" d="M282.75,142.75c-1.23,0-2.35,0-3.65,0c0-9.16,0-18.29,0-27.59c1.17,0,2.34,0,3.65,0
		C282.75,124.33,282.75,133.4,282.75,142.75z"/>
</g>
</svg>
